<svg width="380" height="337" viewBox="0 0 380 337" fill="none" xmlns="http://www.w3.org/2000/svg">
<path d="M351.535 120.609H351.411L279.921 151.135L182.107 192.902C181.335 193.227 180.466 193.232 179.691 192.915L78.7761 151.048L5.53009 120.659L5.41809 120.609H5.29407C2.88707 120.612 0.937082 122.562 0.934082 124.968V314.28C0.937082 316.686 2.88707 318.637 5.29407 318.639H351.535C353.942 318.637 355.892 316.686 355.894 314.28V124.968C355.892 122.562 353.942 120.612 351.535 120.609Z" fill="white"/>
<path d="M351.846 121.854C351.719 121.854 351.595 121.814 351.491 121.742L179.267 1.80051C178.194 1.05651 176.771 1.05951 175.7 1.80651L4.71703 121.742C4.43503 121.937 4.04803 121.868 3.85103 121.587C3.65403 121.306 3.72104 120.919 4.00204 120.721L174.985 0.787508C176.484 -0.259492 178.476 -0.262495 179.979 0.778505L352.202 120.72C352.426 120.876 352.522 121.159 352.441 121.418C352.359 121.678 352.118 121.854 351.846 121.854Z" fill="#3F3D56"/>
<path d="M14.4871 126.105L177.651 5.18048L342.054 134.709L186.058 227.186L101.366 207.881L14.4871 126.105Z" fill="#E6E6E6"/>
<path d="M108.516 284.304H27.908C25.828 284.307 24.14 282.624 24.137 280.544C24.134 278.464 25.8169 276.776 27.8969 276.773H108.516C110.595 276.77 112.284 278.453 112.287 280.533C112.29 282.613 110.607 284.301 108.527 284.304H108.516Z" fill="#FF5400"/>
<path d="M56.8279 268.114H27.9079C25.8289 268.116 24.1419 266.433 24.1389 264.354C24.1359 262.275 25.8179 260.587 27.8969 260.582H56.8279C58.1739 260.58 59.4199 261.295 60.0949 262.46C60.7699 263.624 60.7719 265.061 60.0999 266.227C59.4289 267.394 58.1849 268.113 56.8389 268.114H56.8279Z" fill="#FF5400"/>
<path d="M179.946 193.46C179.334 193.46 178.727 193.34 178.16 193.109L77.531 151.355V20.6585C77.534 18.2525 79.484 16.3025 81.89 16.2995H274.939C277.345 16.3025 279.295 18.2525 279.298 20.6585V151.447L279.109 151.527L181.787 193.089C181.204 193.333 180.578 193.46 179.946 193.46Z" fill="white"/>
<path d="M179.946 193.771C179.293 193.771 178.646 193.645 178.041 193.398L77.22 151.564V20.6585C77.223 18.0805 79.312 15.9915 81.89 15.9885H274.939C277.517 15.9915 279.606 18.0805 279.609 20.6585V151.653L181.909 193.375C181.288 193.637 180.62 193.771 179.946 193.771ZM78.465 150.732L178.516 192.246C179.449 192.625 180.494 192.619 181.423 192.229L278.364 150.83V20.6585C278.361 18.7685 276.829 17.2365 274.939 17.2335H81.89C80 17.2365 78.467 18.7685 78.465 20.6585V150.732Z" fill="#3F3D56"/>
<path d="M350.601 120.609H350.476L278.986 151.135L181.173 192.902C180.401 193.227 179.532 193.232 178.757 192.915L77.842 151.048L4.59599 120.659L4.48399 120.609H4.35899C1.95299 120.612 0.003 122.562 0 124.968V314.28C0.003 316.686 1.95299 318.637 4.35899 318.639H350.601C353.007 318.637 354.958 316.686 354.96 314.28V124.968C354.958 122.562 353.007 120.612 350.601 120.609ZM353.715 314.28C353.714 315.999 352.32 317.393 350.601 317.394H4.35899C2.63999 317.393 1.246 315.999 1.246 314.28V124.968C1.248 123.295 2.56901 121.921 4.24101 121.854L77.842 152.393L178.277 194.067C179.365 194.509 180.583 194.503 181.665 194.048L278.986 152.487L350.726 121.854C352.394 121.926 353.711 123.298 353.715 124.968V314.28Z" fill="#3F3D56"/>
<path d="M164.28 65.1545H95.779C93.03 65.1505 90.804 62.9215 90.804 60.1725C90.804 57.4235 93.03 55.1945 95.779 55.1905H164.28C167.029 55.1945 169.255 57.4235 169.255 60.1725C169.255 62.9215 167.029 65.1505 164.28 65.1545Z" fill="#FF5400"/>
<path d="M128.784 43.9815H95.7791C93.0281 43.9815 90.7971 41.7505 90.7971 38.9995C90.7971 36.2485 93.0281 34.0175 95.7791 34.0175H128.784C131.536 34.0175 133.766 36.2485 133.766 38.9995C133.766 41.7505 131.536 43.9815 128.784 43.9815Z" fill="#FF5400"/>
<path d="M229.648 114.974H125.028C122.279 114.97 120.053 112.741 120.053 109.992C120.053 107.243 122.279 105.014 125.028 105.01H229.648C232.397 105.014 234.623 107.243 234.623 109.992C234.623 112.741 232.397 114.97 229.648 114.974Z" fill="#CCCCCC"/>
<path d="M229.648 138.015H125.028C122.277 138.015 120.046 135.785 120.046 133.033C120.046 130.282 122.277 128.051 125.028 128.051H229.648C232.399 128.051 234.63 130.282 234.63 133.033C234.63 135.785 232.399 138.015 229.648 138.015Z" fill="#CCCCCC"/>
<path d="M332.429 336.697C358.591 336.697 379.8 315.488 379.8 289.325C379.8 263.163 358.591 241.954 332.429 241.954C306.266 241.954 285.057 263.163 285.057 289.325C285.057 315.488 306.266 336.697 332.429 336.697Z" fill="#0C66FF"/>
<path d="M327.915 309.323L313.737 291.091L321.982 284.678L328.695 293.311L351.374 269.37L358.958 276.555L327.915 309.323Z" fill="white"/>
</svg>
