<svg width="338" height="287" viewBox="0 0 338 287" fill="none" xmlns="http://www.w3.org/2000/svg">
<path d="M314.195 116.748L303.376 111.002L304.186 110.571L315.005 116.318L314.195 116.748Z" fill="#CBCBCB"/>
<path d="M304.758 116.748L303.949 116.318L314.768 110.571L315.577 111.002L304.758 116.748Z" fill="#CBCBCB"/>
<path d="M224.235 72.2075L223.713 73.2263L226.769 74.7922L227.291 73.7735L224.235 72.2075Z" fill="#CBCBCB"/>
<path d="M287.601 105.961L281.518 102.844L282.04 101.826L288.123 104.942L287.601 105.961ZM275.434 99.7275L269.351 96.6103L269.873 95.5915L275.956 98.7087L275.434 99.7275ZM263.268 93.4935L257.185 90.3766L257.707 89.3578L263.79 92.4746L263.268 93.4935ZM251.102 87.2597L245.018 84.1429L245.54 83.1241L251.624 86.2409L251.102 87.2597ZM238.935 81.026L232.852 77.9092L233.374 76.8903L239.457 80.0072L238.935 81.026Z" fill="#CBCBCB"/>
<path d="M294.206 108.059L293.684 109.078L296.74 110.644L297.262 109.625L294.206 108.059Z" fill="#CBCBCB"/>
<path d="M63.4424 148.834C63.4424 149.191 63.4308 149.546 63.4077 149.897C63.2777 151.925 62.7655 153.91 61.8979 155.747C61.8911 155.762 61.8832 155.777 61.8766 155.792C61.8362 155.877 61.7947 155.962 61.7521 156.046C61.4941 156.566 61.2078 157.071 60.8946 157.559C59.464 159.801 57.5032 161.656 55.1854 162.96C52.8676 164.264 50.2642 164.978 47.6053 165.037L47.7656 174.254L49.8561 173.154L50.2293 173.863L47.7813 175.152L48.0806 192.271L48.0839 192.5L46.4676 192.859L46.4709 192.63L46.9798 165.038C44.8396 165.007 42.7269 164.552 40.7642 163.698C38.8015 162.844 37.028 161.609 35.5467 160.064C35.4447 159.959 35.3438 159.85 35.2452 159.742L35.234 159.73C33.9998 158.384 33.0016 156.84 32.2815 155.162C32.2973 155.18 32.3141 155.196 32.3298 155.214C30.7024 151.409 30.5921 147.126 32.0213 143.242C33.4505 139.358 36.3111 136.168 40.0168 134.325C40.0729 134.297 40.1301 134.27 40.1861 134.242C43.8518 132.477 48.047 132.153 51.9403 133.335C55.8336 134.516 59.1408 137.118 61.2062 140.623C61.3049 140.789 61.4002 140.958 61.4921 141.128C62.7751 143.494 63.4456 146.143 63.4424 148.834Z" fill="#E5E5E5"/>
<path d="M61.2605 155.8C72.994 155.8 82.5059 146.289 82.5059 134.557C82.5059 122.825 72.994 113.314 61.2605 113.314C49.527 113.314 40.0151 122.825 40.0151 134.557C40.0151 146.289 49.527 155.8 61.2605 155.8Z" fill="#E5E5E5"/>
<path opacity="0.2" d="M45.5737 120.368C43.592 125.003 43.3232 130.192 44.8153 135.007C46.3074 139.822 49.4632 143.95 53.7187 146.653C57.9743 149.355 63.0523 150.457 68.0454 149.761C73.0385 149.064 77.6212 146.615 80.9748 142.852C79.7642 145.683 77.9524 148.218 75.6648 150.28C73.3772 152.343 70.6685 153.883 67.7265 154.794C64.7845 155.706 61.6795 155.967 58.6265 155.56C55.5736 155.152 52.6458 154.086 50.0459 152.435C47.446 150.783 45.2362 148.587 43.5696 145.997C41.903 143.407 40.8195 140.486 40.3941 137.435C39.9687 134.385 40.2116 131.279 41.1059 128.332C42.0003 125.385 43.5248 122.668 45.5737 120.368Z" fill="black"/>
<path d="M62.41 193.737L60.2402 193.128L60.2448 192.895L60.895 157.559L60.9275 155.797L60.9282 155.746L61.042 149.572L61.2065 140.624V140.623L61.3183 134.557H61.3781L61.4926 141.128L61.6415 149.681L61.7481 155.75V155.795L61.7526 156.045V156.046L61.9588 167.876L61.9802 169.051L62.4061 193.502L62.41 193.737Z" fill="#3F3D56"/>
<path d="M64.698 166.434L61.186 168.282L61.6755 169.212L65.1874 167.363L64.698 166.434Z" fill="#3F3D56"/>
<path d="M336.663 65.8063C309.848 64.2211 282.952 64.6345 256.198 67.043C243.303 68.2085 230.203 69.4674 217.546 72.2799C207.352 74.5453 195.52 78.3741 189.168 87.2922C187.838 89.0891 186.941 91.1693 186.549 93.3703C186.156 95.5712 186.278 97.8331 186.905 99.979C188.42 105.063 192.187 109.295 196.2 112.609C205.435 120.237 216.893 124.676 227.128 130.737C245.815 141.802 262.918 156.717 273.895 175.663C278.726 184 283.321 195.086 277.942 204.273C272.672 213.272 260.909 216.373 251.316 217.835C239.292 219.668 226.906 219.171 214.831 218.145C201.594 216.91 188.43 214.982 175.395 212.369C149.858 207.466 124.553 201.229 98.661 198.393C85.6785 196.866 72.5866 196.487 59.5376 197.261C47.7528 198.056 35.8671 199.92 24.7961 204.169C16.265 207.443 7.17133 212.397 2.56317 220.658C-1.87889 228.622 -0.14635 237.805 4.69051 245.153C10.5102 253.993 19.5853 260.051 29.0203 264.479C39.763 269.521 51.2532 272.788 62.7582 275.568C68.5932 276.977 74.4597 278.251 80.3268 279.519C81.5508 279.783 82.0738 277.903 80.8454 277.638C69.0139 275.082 57.1482 272.517 45.6105 268.817C34.9336 265.392 24.0073 261.005 15.2639 253.815C8.19041 247.997 1.46503 239.5 1.88253 229.84C2.30341 220.101 10.4754 213.301 18.4851 209.115C28.4949 203.885 39.8675 201.337 51.0113 200.005C63.7712 198.584 76.6392 198.409 89.433 199.483C115.264 201.448 140.518 207.332 165.844 212.463C190.448 217.449 215.82 222.065 241.035 220.787C251.029 220.28 261.737 218.848 270.561 213.804C274.602 211.495 278.245 208.238 280.298 203.999C282.148 199.967 282.733 195.469 281.976 191.097C280.545 181.494 274.841 172.59 269.15 164.941C262.911 156.645 255.673 149.149 247.602 142.623C238.743 135.494 229.191 129.272 219.09 124.051C213.733 121.231 208.301 118.519 203.196 115.253C198.301 112.121 193.473 108.353 190.484 103.269C187.898 98.8719 187.424 93.8533 190.117 89.3936C192.84 84.8829 197.533 81.737 202.16 79.4381C213.309 73.8992 226.27 72.4166 238.468 70.8974C264.658 67.6465 291.053 66.3306 317.437 66.9604C323.85 67.1112 330.259 67.3767 336.663 67.7567C337.917 67.8305 337.913 65.8798 336.663 65.8063V65.8063Z" fill="black"/>
<path d="M319.652 3.28466L323.702 0.0453658C320.556 -0.301765 319.263 1.41419 318.734 2.77237C316.275 1.7517 313.599 3.08934 313.599 3.08934L321.704 6.03119C321.295 4.93927 320.583 3.98652 319.652 3.28466Z" fill="#3F3D56"/>
<path d="M299.995 13.5397L304.045 10.3004C300.898 9.95331 299.605 11.6692 299.076 13.0274C296.618 12.0068 293.942 13.3444 293.942 13.3444L302.046 16.2863C301.637 15.1943 300.926 14.2416 299.995 13.5397Z" fill="#3F3D56"/>
<path d="M319.652 29.7769L323.702 26.5376C320.556 26.1905 319.263 27.9064 318.734 29.2646C316.275 28.2439 313.599 29.5816 313.599 29.5816L321.704 32.5234C321.295 31.4315 320.583 30.4788 319.652 29.7769Z" fill="#3F3D56"/>
<path d="M258.929 34.5762C265.669 34.5762 271.133 29.113 271.133 22.3738C271.133 15.6346 265.669 10.1714 258.929 10.1714C252.189 10.1714 246.725 15.6346 246.725 22.3738C246.725 29.113 252.189 34.5762 258.929 34.5762Z" fill="#0C66FF"/>
<path d="M297.197 59.9751H237.33C237.255 59.976 237.18 59.9701 237.106 59.9574L265.421 10.9199C265.594 10.6145 265.845 10.3603 266.148 10.1835C266.451 10.0067 266.796 9.91351 267.147 9.91351C267.498 9.91351 267.842 10.0067 268.145 10.1835C268.448 10.3603 268.699 10.6145 268.872 10.9199L287.874 43.8267L288.784 45.4011L297.197 59.9751Z" fill="#FF5400"/>
<path d="M330.529 59.9756H278.75L288.783 45.4028L289.505 44.3527L302.579 25.3617C302.81 25.0711 303.1 24.8325 303.43 24.6613C303.759 24.4901 304.121 24.3902 304.492 24.368C304.862 24.3459 305.234 24.4021 305.581 24.5328C305.929 24.6636 306.245 24.8661 306.509 25.1271C306.577 25.2012 306.64 25.2796 306.697 25.3617L330.529 59.9756Z" fill="#FF5400"/>
<path d="M245.116 172.444C250.79 175.28 254.245 179.025 254.245 183.133C254.245 191.983 238.229 199.158 218.473 199.158C209.884 199.158 202.004 197.8 195.837 195.54C202.387 198.813 211.894 200.874 222.48 200.874C242.236 200.874 258.252 193.7 258.252 184.85C258.252 179.848 253.133 175.382 245.116 172.444Z" fill="#F1F1F1"/>
<path d="M257.738 178.523C264.141 181.723 268.04 185.949 268.04 190.585C268.04 200.571 249.968 208.666 227.675 208.666C217.983 208.666 209.091 207.135 202.133 204.584C209.524 208.278 220.252 210.603 232.196 210.603C254.488 210.603 272.56 202.508 272.56 192.522C272.56 186.878 266.784 181.839 257.738 178.523Z" fill="#F1F1F1"/>
<path d="M240.285 175.121C244.283 177.119 246.717 179.758 246.717 182.653C246.717 188.888 235.434 193.942 221.515 193.942C216.092 194.012 210.698 193.15 205.567 191.393C210.182 193.699 216.88 195.152 224.338 195.152C238.256 195.152 249.54 190.097 249.54 183.862C249.54 180.338 245.933 177.192 240.285 175.121Z" fill="#F1F1F1"/>
<path d="M184.113 173.977C184.113 173.977 184.991 186.816 210.174 186.816C235.358 186.816 242.876 173.977 242.876 173.977H184.113Z" fill="#3F3D56"/>
<path d="M219.858 140.289C216.222 137.527 211.659 136.279 207.124 136.806C211.177 137.783 214.756 140.156 217.233 143.509C219.711 146.861 220.928 150.979 220.672 155.14C220.416 159.301 218.702 163.238 215.832 166.262C212.961 169.285 209.118 171.201 204.976 171.673C208.938 172.629 213.108 172.193 216.786 170.436C220.464 168.679 223.425 165.71 225.171 162.028C226.918 158.345 227.343 154.174 226.375 150.215C225.407 146.256 223.106 142.751 219.858 140.289Z" fill="#3F3D56"/>
<path d="M211.605 134.489H209.888V175.356H211.605V134.489Z" fill="#3F3D56"/>
<path d="M324.448 104.124L324.439 104.108L324.416 103.11L329.795 95.3008L324.422 102.363L324.403 102.574L324.219 94.5919L328.865 86.4955L324.206 93.1897L324.255 76.6531L324.254 76.598L324.253 76.6522L323.944 89.6852L319.71 84.3912L323.931 90.808L323.838 97.9477L319.942 90.9797L323.824 98.9974L323.772 102.967L323.63 113.966L323.62 114.788C323.978 114.791 324.334 114.785 324.685 114.77L324.442 104.206L324.448 104.124Z" fill="#CBCBCB"/>
<path d="M298.692 107.558L298.683 107.542L298.66 106.544L304.039 98.7346L298.667 105.797L298.647 106.008L298.463 98.0256L303.109 89.9293L298.45 96.6234L298.499 80.0868L298.499 80.0317L298.497 80.0859L298.189 93.1189L293.954 87.8249L298.175 94.2417L298.082 101.381L294.186 94.4134L298.068 102.431L298.016 106.401L297.874 117.4L297.864 118.222C298.223 118.225 298.578 118.219 298.929 118.204L298.686 107.639L298.692 107.558Z" fill="#CBCBCB"/>
<path d="M311.284 96.6843L311.275 96.6685L311.252 95.6703L316.631 87.8611L311.258 94.9231L311.239 95.1341L311.055 87.1521L315.701 79.0558L311.042 85.7499L311.091 69.2133L311.09 69.1583L311.089 69.2124L310.78 82.2455L306.546 76.9514L310.767 83.3682L310.674 90.5079L306.778 83.5399L310.66 91.5576L310.608 95.5276L310.466 106.526L310.456 107.348C310.815 107.351 311.17 107.345 311.521 107.33L311.278 96.7658L311.284 96.6843Z" fill="#CBCBCB"/>
<path d="M98.5664 286.718C102.36 286.718 105.435 283.644 105.435 279.851C105.435 276.058 102.36 272.983 98.5664 272.983C94.7732 272.983 91.6982 276.058 91.6982 279.851C91.6982 283.644 94.7732 286.718 98.5664 286.718Z" fill="#FF5400"/>
</svg>
